# xmcd CD database file
# Copyright (C) 1997 Ti Kan
# 
# Track frame offsets:
#     182
#     21875
#     47242
#     65802
#     90485
#     117777
#     140837
#     160740
#     175627
#     195900
#     212170
#     234685
#     257190
# 
# Disc length: 3739 seconds
# 
# Revision: 1
# Processed by: cddbd v1.4b41PL1 Copyright (c) Steve Scherf et al.
# Submitted via: DiscPlay 4.0.4
# 
DISCID=b60e990d
DTITLE=Ex-Girlfriend - It's A Woman Thang
DYEAR=1900
DGENRE=
TTITLE0=X in Your Sex
TTITLE1=Can I Get A Nasty
TTITLE2=You For Me
TTITLE3=Sexual Chocolate
TTITLE4=I Want You
TTITLE5=It's A Woman Thang (U Wouldn't Understand It)
TTITLE6=Yes I'm Ready
TTITLE7=Falling 4-U
TTITLE8=Nobody Like You
TTITLE9=Back Together
TTITLE10=Takes Me Away
TTITLE11=Cost Of Love
TTITLE12=X In Your Sex
EXTD=
EXTT0=
EXTT1=
EXTT2=
EXTT3=
EXTT4=
EXTT5=
EXTT6=
EXTT7=
EXTT8=
EXTT9=
EXTT10=
EXTT11=
EXTT12=
PLAYORDER=
